<?xml version="1.0" encoding="iso-8859-1"?>
<!DOCTYPE svg PUBLIC "-//W3C//DTD SVG 1.1//EN" "http://www.w3.org/Graphics/SVG/1.1/DTD/svg11.dtd">
<svg xmlns="http://www.w3.org/2000/svg" xmlns:xlink="http://www.w3.org/1999/xlink" version="1.1" viewBox="0 0 310.681 310.681" enable-background="new 0 0 310.681 310.681" width="512px" height="512px">
  <g>
    <circle cx="61.239" cy="34.712" r="25.907" fill="#ff5a60"/>
    <path d="m309.882,282.054l-27.199-76.042v-119.827c0-9.665-7.835-17.501-17.501-17.501h-31.209c-9.665,0-17.501,7.835-17.501,17.501v43.533l14.849-5.147 20.151-36.19-11.895,46.029-40.486,14.032c-6.398,2.218-10.204,9.061-8.244,15.543 1.648,5.45 6.628,8.897 11.965,8.898 1.359,0 2.741-0.222 4.098-0.692l47.187-16.354c3.955-1.371 6.961-4.63 8.009-8.683l13.135-50.828-1.134,50.935c-0.02,0.885-0.222,2.311-0.454,3.165-2.12,7.837-7.943,14.087-15.626,16.75l-38.301,13.275-3.481,35.866c-0.047,0.483-0.07,0.969-0.07,1.455l.025,69.106c0.003,8.282 6.718,14.995 15,14.995h0.006c8.284-0.003 14.997-6.722 14.994-15.006l-.025-68.377 4.013-41.352c0.064-0.659 0.618-1.162 1.28-1.162 0.687,0 1.253,0.541 1.284,1.227l1.474,32.322c0.065,1.402 0.327,2.789 0.778,4.118l26.468,78.046c2.119,6.249 7.952,10.187 14.203,10.187 1.598,0 3.223-0.257 4.819-0.799 7.846-2.66 12.049-11.177 9.388-19.023z" fill="#ff5a60"/>
    <path d="m153.927,165.975h20.481c1.548,0 3.022-0.305 4.378-0.845-1.685-8.499 1.303-17.126 7.474-22.802v-7.408h-32.333v31.055z" fill="#ff5a60"/>
    <path d="m128.93,165.975h12.997v-11.636c-2.735,5.288-7.334,9.469-12.997,11.636z" fill="#ff5a60"/>
    <circle cx="249.441" cy="34.712" r="25.907" fill="#ff5a60"/>
    <path d="m121.199,130.636l-42.575-4.837-21.673-42.313 27.578,30.906 9.679,1.1v-29.307c0-9.665-7.835-17.501-17.501-17.501h-31.209c-9.665,0-17.501,7.835-17.501,17.501v134.312l-26.862,60.661c-3.155,7.659 0.495,16.427 8.155,19.583 1.869,0.771 3.805,1.135 5.708,1.135 5.896,0 11.489-3.5 13.875-9.29l26-63.105c0.666-1.617 1.045-3.339 1.118-5.087l1.874-45.481c0.068-1.641 1.418-2.937 3.06-2.937 1.285,0 2.433,0.802 2.875,2.008l14.84,40.456-13.834,65.324c-1.716,8.104 3.463,16.065 11.567,17.782 1.048,0.222 2.093,0.328 3.122,0.328 6.937,0 13.165-4.839 14.66-11.896l14.728-69.546c0.584-2.759 0.379-5.626-0.592-8.272l-14.083-38.396v-8.957l-26.42-3.002c-8.079-0.918-15.128-5.742-18.911-12.926-0.413-0.783-0.922-2.13-1.135-2.989l-12.247-49.454 23.934,46.725c1.909,3.726 5.555,6.249 9.715,6.721l49.622,5.638c1.427,0.162 2.824,0.077 4.15-0.221 5.208-1.169 9.313-5.621 9.729-11.299 0.493-6.754-4.718-12.599-11.446-13.364z" fill="#ff5a60"/>
    <path d="m174.408,92.475h-5.132c1.124-0.632 2.112-1.327 2.885-2.1 6.268-6.269 6.268-16.47-0.001-22.74-6.27-6.268-16.47-6.267-22.739,0v0.001c-0.534,0.534-1.028,1.183-1.494,1.895-0.466-0.712-0.96-1.36-1.494-1.895-6.268-6.27-16.469-6.271-22.74,0-6.268,6.27-6.268,16.47 0.001,22.739 0.773,0.773 1.761,1.468 2.885,2.1h-5.133c-6.546,0-11.852,5.306-11.852,11.852v12.913l13.348,1.517c4.068,0.462 7.872,1.899 11.147,4.163h7.838v-31.055h12v31.056h32.333v-18.593c2.84217e-14-6.546-5.306-11.853-11.852-11.853zm-42.229-10.584c-1.591-1.591-1.591-4.18-0.001-5.77 0.796-0.796 1.841-1.193 2.886-1.193 1.031,0 2.063,0.388 2.854,1.162 0.828,1.021 1.885,4.421 2.755,8.526-4.125-0.871-7.529-1.924-8.494-2.725zm31.546-.047c-0.996,0.831-4.413,1.895-8.542,2.771 0.87-4.104 1.926-7.504 2.754-8.524 1.593-1.56 4.157-1.551 5.738,0.03 1.591,1.591 1.591,4.179 0.05,5.723z" fill="#ff5a60"/>
  </g>
</svg>
